<svg xmlns="http://www.w3.org/2000/svg" viewBox="0 0 512 512" role="img" aria-label="晴雨天气图标">
  <defs>
    <linearGradient id="bg" x1="72" y1="70" x2="438" y2="442" gradientUnits="userSpaceOnUse">
      <stop stop-color="#79e1ff"/>
      <stop offset="0.52" stop-color="#3a7bd5"/>
      <stop offset="1" stop-color="#b48cff"/>
    </linearGradient>
    <filter id="shadow" x="-20%" y="-20%" width="140%" height="140%">
      <feDropShadow dx="0" dy="18" stdDeviation="20" flood-color="#07111f" flood-opacity="0.32"/>
    </filter>
  </defs>
  <rect width="512" height="512" rx="116" fill="url(#bg)"/>
  <circle cx="180" cy="182" r="72" fill="#fff7a8"/>
  <g filter="url(#shadow)">
    <path d="M321 340H165c-51 0-92-38-92-85 0-43 35-79 80-84 22-49 74-82 134-82 75 0 137 51 146 117 42 9 74 44 74 87 0 49-42 47-94 47h-92Z" fill="#f7fbff"/>
    <path d="M160 384c18-20 28-35 32-61 18 20 28 38 28 59 0 24-13 43-30 43s-30-18-30-41Z" fill="#79e1ff"/>
    <path d="M282 386c18-20 28-35 32-61 18 20 28 38 28 59 0 24-13 43-30 43s-30-18-30-41Z" fill="#79e1ff"/>
  </g>
</svg>
